<?xml version="1.0" standalone="no"?>
<!DOCTYPE svg PUBLIC "-//W3C//DTD SVG 20010904//EN"
 "http://www.w3.org/TR/2001/REC-SVG-20010904/DTD/svg10.dtd">
<svg version="1.0" xmlns="http://www.w3.org/2000/svg"
 width="500.000000pt" height="500.000000pt" viewBox="0 0 500.000000 500.000000"
 preserveAspectRatio="xMidYMid meet">

<g transform="translate(0.000000,500.000000) scale(0.100000,-0.100000)"
fill="#000000" stroke="none">
<path d="M1520 2825 l0 -855 125 0 125 0 0 -290 0 -290 275 0 275 0 0 325 0
325 305 0 305 0 0 -325 0 -325 275 0 275 0 0 860 0 860 -225 0 -225 0 0 38
c-1 183 -121 386 -277 470 -116 61 -124 62 -705 62 l-528 0 0 -855z m870 437
c58 -29 80 -73 80 -161 0 -93 -21 -133 -83 -161 -67 -31 -67 -31 -67 75 l0 95
-125 0 -125 0 0 85 0 85 143 0 c115 0 149 -3 177 -18z m540 -652 l0 -130 -305
0 c-290 0 -305 1 -305 19 0 16 12 19 138 23 111 5 152 11 209 30 86 31 173 87
221 144 20 24 38 44 39 44 2 0 3 -58 3 -130z"/>
</g>
</svg>
